<svg xmlns="http://www.w3.org/2000/svg" viewBox="0 0 512 512">
  <path fill="#000000" d="M508.52,249.75,486.7,236.24c-.17-2-.34-3.93-.55-5.88l18.72-17.5a7.35,7.35,0,0,0-2.44-12.25l-24-9c-.54-1.88-1.08-3.78-1.67-5.64l15.94-20.05a7.35,7.35,0,0,0-4.78-11.54l-25.42-4.15c-.9-1.73-1.79-3.45-2.73-5.15l12.45-22a7.35,7.35,0,0,0-7-10.31l-25.85.72c-1.23-1.49-2.45-3-3.74-4.43l8.45-23.38a7.35,7.35,0,0,0-8.9-8.9L429.89,98.45c-1.44-1.29-2.89-2.59-4.37-3.52l4-24.75A7.35,7.35,0,0,0,419.18,62L395,70.42c-1.73-.92-3.5-1.82-5.26-2.74L394.9,42a7.35,7.35,0,0,0-11.54-4.77L363.31,53.23c-1.86-.59-3.74-1.18-5.64-1.68l-9-24A7.35,7.35,0,0,0,336.39,25L318.88,43.7c-2-.21-3.91-.38-5.88-.54L299.49,21.35a7.35,7.35,0,0,0-13.09,0L272.89,43.17c-2,.16-3.94.33-5.9.55L249.51,25a7.35,7.35,0,0,0-12.25,2.44l-9,24c-1.9.5-3.79,1.09-5.66,1.68L202.58,37.2a7.35,7.35,0,0,0-11.54,4.77l5.16,25.7c-1.77.92-3.54,1.84-5.31,2.75L166.11,62a7.35,7.35,0,0,0-10.31,7l4,24.76c-1.48.93-3,2.22-4.42,3.52L139,98.82a7.35,7.35,0,0,0-8.9,8.9l8.46,23.39c-1.29,1.44-2.58,2.89-3.85,4.34l-25.77-.72a7.35,7.35,0,0,0-7,10.31l12.45,22c-.94,1.7-1.89,3.42-2.79,5.15L86.23,176.4a7.35,7.35,0,0,0-4.77,11.54l15.94,20.05c-.59,1.87-1.22,3.76-1.76,5.65l-24,9A7.35,7.35,0,0,0,69.13,235l18.73,17.5c-.21,1.95-.38,3.91-.55,5.88L65.48,271.84a7.35,7.35,0,0,0,0,13.09L87.3,298.44c.17,2,.34,3.92.55,5.87L69.13,321.81a7.35,7.35,0,0,0,2.44,12.25l24,9c.54,1.89,1.08,3.78,1.67,5.65l-15.94,20.05a7.35,7.35,0,0,0,4.77,11.54l25.43,4.15c.9,1.72,1.79,3.45,2.73,5.14L101.82,411.5a7.35,7.35,0,0,0,7,10.31l25.86-.72c1.23,1.48,2.45,3,3.74,4.42l-8.45,23.39a7.35,7.35,0,0,0,8.9,8.9l23.39-8.45c1.44,1.29,2.89,2.58,4.37,3.85l-4,24.75a7.35,7.35,0,0,0,10.31,7l24.67-8.46c1.7.94,3.42,1.89,5.14,2.79l-5.15,25.69a7.35,7.35,0,0,0,11.54,4.77l20.05-15.94c1.86.59,3.74,1.17,5.64,1.67l9,24a7.35,7.35,0,0,0,12.25,2.44l17.5-18.72c1.95.21,3.92.38,5.88.55l13.51,21.82a7.35,7.35,0,0,0,13.09,0l13.51-21.82c2-.17,3.93-.34,5.88-.55L318.88,494c3.19,3.4,8.9,2.44,12.25-2.44l9-24c1.9-.5,3.78-1.08,5.66-1.67l20.05,15.94a7.35,7.35,0,0,0,11.54-4.77l-5.16-25.69c1.72-.9,3.44-1.79,5.14-2.79L401.71,457a7.35,7.35,0,0,0,10.31-7l-4-24.75c1.48-1.27,3-2.56,4.42-3.85l23.39,8.45a7.35,7.35,0,0,0,8.9-8.9l-8.45-23.39c1.29-1.44,2.58-2.94,3.85-4.42l25.86.72a7.35,7.35,0,0,0,7-10.31l-12.45-22c.94-1.69,1.89-3.42,2.79-5.14l25.42-4.15a7.35,7.35,0,0,0,4.77-11.54l-15.94-20.05c.59-1.87,1.13-3.76,1.67-5.65l24-9a7.35,7.35,0,0,0,2.44-12.25l-18.72-17.5c.21-1.95.38-3.91.55-5.87l21.82-13.51a7.35,7.35,0,0,0,0-13.09ZM289.84,385.46l-.3,32.06-24.49-19.47-31,11.3,19.47-24.49-11.3-31-32.06.3.3-32.06,24.49,19.47,31-11.3L246.49,354.3l11.3,31,32.06-.3Zm-134.45-83L188,330.63l-32.06.3.3-32.06L180.72,318.34l31-11.3L192.25,331.53l11.3,31ZM247.64,158l24.49,19.47-19.47,24.49,11.3,31,32.06-.3-.3,32.06-24.49-19.47-31,11.3,19.47-24.49-11.3-31-32.06.3Zm134.45,83-32.06.3.3-32.06,24.49,19.47,31-11.3L386.35,242l11.3,31Z"/>
</svg>